<svg width="16" height="16" viewBox="0 0 16 16" fill="none" xmlns="http://www.w3.org/2000/svg">
<path d="M6.66671 13.712C4.38071 14.4834 2.47604 13.712 1.33337 11.3334" stroke="white" stroke-width="1.5" stroke-linecap="round" stroke-linejoin="round"/>
<path d="M6.66671 14.6667V12.5054C6.66671 12.1067 6.78937 11.76 6.98671 11.4467C7.12271 11.232 7.02937 10.9267 6.78471 10.86C4.75604 10.3014 3.33337 9.40468 3.33337 6.43002C3.33337 5.65669 3.58671 4.93002 4.03204 4.29669C4.14271 4.13935 4.19871 4.06068 4.21204 3.99002C4.22537 3.91802 4.20204 3.82535 4.15537 3.63868C3.96671 2.88135 3.97937 2.07669 4.26204 1.35202C4.26204 1.35202 4.84671 1.16068 6.17804 1.99202C6.48204 2.18202 6.63404 2.27735 6.76804 2.29868C6.90204 2.32002 7.08071 2.27535 7.43804 2.18602C7.94895 2.05935 8.47367 1.99687 9.00004 2.00002C9.5264 1.99777 10.051 2.06047 10.562 2.18668C10.9194 2.27602 11.0987 2.32002 11.2327 2.29935C11.366 2.27802 11.518 2.18268 11.822 1.99269C13.1534 1.16135 13.738 1.35269 13.738 1.35269C14.0207 2.07735 14.0334 2.88202 13.8447 3.63935C13.798 3.82602 13.7754 3.91935 13.7887 3.99002C13.802 4.06068 13.8574 4.14002 13.968 4.29735C14.4134 4.93068 14.6667 5.65735 14.6667 6.43068C14.6667 9.40535 13.244 10.302 11.2154 10.8594C10.9707 10.9267 10.8774 11.232 11.0134 11.446C11.2107 11.7594 11.3334 12.106 11.3334 12.5054V14.6667" stroke="white" stroke-width="1.5" stroke-linecap="round" stroke-linejoin="round"/>
</svg>
