<svg width="14" height="14" viewBox="0 0 14 14" fill="none" xmlns="http://www.w3.org/2000/svg">
<path d="M4.20004 0.333313H9.80004C11.9334 0.333313 13.6667 2.06665 13.6667 4.19998V9.79998C13.6667 10.8255 13.2593 11.809 12.5342 12.5341C11.809 13.2593 10.8255 13.6666 9.80004 13.6666H4.20004C2.06671 13.6666 0.333374 11.9333 0.333374 9.79998V4.19998C0.333374 3.17448 0.740754 2.19097 1.46589 1.46583C2.19104 0.740693 3.17454 0.333313 4.20004 0.333313ZM4.06671 1.66665C3.43019 1.66665 2.81974 1.9195 2.36965 2.36959C1.91956 2.81968 1.66671 3.43013 1.66671 4.06665V9.93331C1.66671 11.26 2.74004 12.3333 4.06671 12.3333H9.93337C10.5699 12.3333 11.1803 12.0805 11.6304 11.6304C12.0805 11.1803 12.3334 10.5698 12.3334 9.93331V4.06665C12.3334 2.73998 11.26 1.66665 9.93337 1.66665H4.06671ZM10.5 2.66665C10.7211 2.66665 10.933 2.75444 11.0893 2.91072C11.2456 3.067 11.3334 3.27897 11.3334 3.49998C11.3334 3.72099 11.2456 3.93295 11.0893 4.08924C10.933 4.24552 10.7211 4.33331 10.5 4.33331C10.279 4.33331 10.0671 4.24552 9.91078 4.08924C9.7545 3.93295 9.66671 3.72099 9.66671 3.49998C9.66671 3.27897 9.7545 3.067 9.91078 2.91072C10.0671 2.75444 10.279 2.66665 10.5 2.66665ZM7.00004 3.66665C7.8841 3.66665 8.73194 4.01784 9.35706 4.64296C9.98218 5.26808 10.3334 6.11592 10.3334 6.99998C10.3334 7.88403 9.98218 8.73188 9.35706 9.357C8.73194 9.98212 7.8841 10.3333 7.00004 10.3333C6.11599 10.3333 5.26814 9.98212 4.64302 9.357C4.0179 8.73188 3.66671 7.88403 3.66671 6.99998C3.66671 6.11592 4.0179 5.26808 4.64302 4.64296C5.26814 4.01784 6.11599 3.66665 7.00004 3.66665ZM7.00004 4.99998C6.46961 4.99998 5.9609 5.21069 5.58583 5.58577C5.21075 5.96084 5.00004 6.46955 5.00004 6.99998C5.00004 7.53041 5.21075 8.03912 5.58583 8.41419C5.9609 8.78927 6.46961 8.99998 7.00004 8.99998C7.53047 8.99998 8.03918 8.78927 8.41425 8.41419C8.78933 8.03912 9.00004 7.53041 9.00004 6.99998C9.00004 6.46955 8.78933 5.96084 8.41425 5.58577C8.03918 5.21069 7.53047 4.99998 7.00004 4.99998Z" fill="white"/>
</svg>
